<svg width="60" height="3" viewBox="0 0 165 18" fill="none" xmlns="http://www.w3.org/2000/svg">
<path d="M11.952 8.32759H16.872L15.432 15.5756C14.536 16.2156 13.504 16.7116 12.336 17.0636C11.184 17.3996 9.94399 17.5676 8.61599 17.5676C6.90399 17.5676 5.39199 17.2556 4.07999 16.6316C2.78399 15.9916 1.77599 15.1036 1.05599 13.9676C0.351991 12.8316 -8.76188e-06 11.5276 -8.76188e-06 10.0556C-8.76188e-06 8.10359 0.455991 6.36759 1.36799 4.84759C2.27999 3.32759 3.55199 2.14359 5.18399 1.29559C6.81599 0.431593 8.68799 -0.000406742 10.8 -0.000406742C14.288 -0.000406742 16.832 1.09559 18.432 3.28759L14.376 6.43159C13.848 5.75959 13.28 5.28759 12.672 5.01559C12.064 4.72759 11.352 4.58359 10.536 4.58359C9.55999 4.58359 8.70399 4.79959 7.96799 5.23159C7.24799 5.66359 6.68799 6.27159 6.28799 7.05559C5.90399 7.82359 5.71199 8.70359 5.71199 9.69559C5.71199 10.6876 6.03999 11.4876 6.69599 12.0956C7.35199 12.6876 8.25599 12.9836 9.40799 12.9836C9.98399 12.9836 10.536 12.9036 11.064 12.7436L11.952 8.32759ZM29.7493 14.2556H23.3413L21.6613 17.1836H15.6853L26.3893 0.383593H31.9573L35.9413 17.1836H30.3013L29.7493 14.2556ZM28.9573 10.1756L28.1413 5.87959L25.6693 10.1756H28.9573ZM60.3172 0.383593L57.0052 17.1836H51.8452L53.3332 9.52759L48.6052 15.6716H46.1092L43.5172 9.62359L42.0052 17.1836H36.8452L40.2052 0.383593H44.8132L48.4612 9.31159L55.4932 0.383593H60.3172ZM67.8077 4.65559L67.4237 6.62359H74.5277L73.7117 10.7036H66.5837L66.1517 12.9116H74.5757L73.7117 17.1836H59.7437L63.1037 0.383593H76.7597L75.8957 4.65559H67.8077Z" fill="black"/>
<path d="M93.9114 0.383593C96.1514 0.383593 97.8874 0.871593 99.1194 1.84759C100.351 2.82359 100.967 4.19159 100.967 5.95159C100.967 7.35959 100.615 8.59959 99.9114 9.67159C99.2234 10.7436 98.2314 11.5756 96.9354 12.1676C95.6554 12.7596 94.1674 13.0556 92.4714 13.0556H89.5674L88.7514 17.1836H83.0874L86.4474 0.383593H93.9114ZM92.7594 8.68759C93.5434 8.68759 94.1514 8.49559 94.5834 8.11159C95.0154 7.71159 95.2314 7.15959 95.2314 6.45559C95.2314 5.31959 94.5274 4.75159 93.1194 4.75159H91.2234L90.4314 8.68759H92.7594ZM104.049 0.383593H109.713L107.241 12.7916H114.825L113.937 17.1836H100.689L104.049 0.383593ZM123.856 17.5676C122.352 17.5676 121.048 17.3196 119.944 16.8236C118.856 16.3116 118.016 15.5916 117.424 14.6636C116.848 13.7356 116.56 12.6476 116.56 11.3996C116.56 10.8876 116.624 10.2956 116.752 9.62359L118.6 0.383593H124.264L122.44 9.52759C122.344 9.97559 122.296 10.3836 122.296 10.7516C122.296 11.5036 122.488 12.0636 122.872 12.4316C123.256 12.7996 123.816 12.9836 124.552 12.9836C125.384 12.9836 126.032 12.7196 126.496 12.1916C126.96 11.6636 127.32 10.7756 127.576 9.52759L129.4 0.383593H134.968L133.072 9.86359C132.56 12.4076 131.536 14.3276 130 15.6236C128.464 16.9196 126.416 17.5676 123.856 17.5676ZM140.877 17.5676C139.421 17.5676 138.053 17.4156 136.773 17.1116C135.493 16.7916 134.437 16.3756 133.605 15.8636L135.789 11.6876C137.597 12.7276 139.485 13.2476 141.453 13.2476C142.173 13.2476 142.725 13.1596 143.109 12.9836C143.493 12.8076 143.685 12.5676 143.685 12.2636C143.685 11.9756 143.485 11.7436 143.085 11.5676C142.701 11.3916 142.085 11.1996 141.237 10.9916C140.117 10.7036 139.189 10.4156 138.453 10.1276C137.717 9.82359 137.069 9.36759 136.509 8.75959C135.965 8.13559 135.693 7.31959 135.693 6.31159C135.693 5.04759 136.029 3.94359 136.701 2.99959C137.389 2.03959 138.373 1.30359 139.653 0.791593C140.933 0.263593 142.445 -0.000406742 144.189 -0.000406742C145.437 -0.000406742 146.597 0.127593 147.669 0.383593C148.757 0.623592 149.693 0.975593 150.477 1.43959L148.437 5.56759C147.781 5.15159 147.053 4.83959 146.253 4.63159C145.469 4.42359 144.661 4.31959 143.829 4.31959C143.045 4.31959 142.437 4.43159 142.005 4.65559C141.573 4.87959 141.357 5.14359 141.357 5.44759C141.357 5.75159 141.549 5.99159 141.933 6.16759C142.333 6.34359 142.981 6.53559 143.877 6.74359C144.965 6.99959 145.877 7.27159 146.613 7.55959C147.365 7.84759 148.013 8.29559 148.557 8.90359C149.101 9.51159 149.373 10.3116 149.373 11.3036C149.373 12.5516 149.029 13.6476 148.341 14.5916C147.653 15.5356 146.669 16.2716 145.389 16.7996C144.109 17.3116 142.605 17.5676 140.877 17.5676ZM163.676 10.8236H159.716L158.948 14.6636H154.628L155.396 10.8236H151.436L152.252 6.74359H156.212L156.98 2.90359H161.3L160.532 6.74359H164.492L163.676 10.8236Z" fill="#FFC516"/>
</svg>